<svg width="26" height="26" viewBox="0 0 26 26" fill="none" xmlns="http://www.w3.org/2000/svg">
<path d="M17.1122 2.38284H8.80853C4.65672 2.38284 2.58081 4.45875 2.58081 8.61056V22.104C2.58081 22.6748 3.04789 23.1419 3.61876 23.1419H17.1122C21.264 23.1419 23.3399 21.066 23.3399 16.9142V8.61056C23.3399 4.45875 21.264 2.38284 17.1122 2.38284Z" fill="#35558A"/>
<path d="M17.683 8.05007C16.3751 6.74224 15.1088 6.7111 13.7699 8.05007L12.9499 8.87005C12.8772 8.94271 12.8565 9.0465 12.8773 9.13992C13.3859 10.9252 14.8078 12.3472 16.5931 12.8558C16.6139 12.8662 16.645 12.8662 16.6761 12.8662C16.7488 12.8662 16.8215 12.835 16.8734 12.7831L17.683 11.9735C18.3473 11.3092 18.669 10.6761 18.669 10.0326C18.669 9.35789 18.3473 8.71436 17.683 8.05007Z" fill="white"/>
<path d="M15.389 13.4578C15.1918 13.3644 15.005 13.271 14.8285 13.1568C14.6832 13.0738 14.5379 12.9803 14.403 12.8765C14.2888 12.8039 14.1538 12.7001 14.0189 12.5859C13.9982 12.5755 13.9567 12.5444 13.9048 12.4821C13.6868 12.2953 13.4377 12.0462 13.2093 11.7867C13.1886 11.7763 13.1574 11.7244 13.1159 11.6621C13.0432 11.5791 12.9395 11.4442 12.8357 11.2989C12.7526 11.1951 12.6592 11.0498 12.5762 10.9044C12.4724 10.728 12.3686 10.5412 12.2856 10.3543C12.1921 10.1467 12.1195 9.9599 12.0468 9.77307L8.13373 13.6862C7.87425 13.9456 7.63552 14.4231 7.58362 14.776L7.2826 16.9349C7.20995 17.3916 7.34487 17.8172 7.62512 18.1078C7.86385 18.3466 8.19602 18.4711 8.5593 18.4711C8.64234 18.4711 8.71497 18.4607 8.79801 18.4504L10.957 18.1494C11.3099 18.0975 11.7873 17.8587 12.0468 17.5992L15.9599 13.6862C15.7731 13.6135 15.5862 13.5408 15.389 13.4578Z" fill="white"/>
</svg>
