<svg width="61" height="61" viewBox="0 0 61 61" fill="none" xmlns="http://www.w3.org/2000/svg">
<g clip-path="url(#clip0_676_1995)">
<path d="M22.5313 0.708496H24.9313V5.5085H22.5313V7.9085H24.9313V12.7085H22.5313V17.5085H20.1313V3.1085H22.5313V0.708496Z" fill="#0E0D39"/>
<path d="M32.1313 0.708496H34.5313V7.9085H32.1313V0.708496Z" fill="#0E0D39"/>
<path d="M36.9312 0.708496H41.7312V7.9085H39.3312V5.5085H36.9312V0.708496Z" fill="#0E0D39"/>
<path d="M0.931152 0.708496V17.5085H17.7312V0.708496H0.931152ZM15.3312 15.1085H3.33115V3.1085H15.3312V15.1085Z" fill="#0E0D39"/>
<path d="M27.3311 3.1084H29.7311V5.5084H27.3311V3.1084Z" fill="#0E0D39"/>
<path d="M44.1313 0.708496V17.5085H60.9313V0.708496H44.1313ZM58.5313 15.1085H46.5313V3.1085H58.5313V15.1085Z" fill="#0E0D39"/>
<path d="M5.73096 5.5083H12.931V12.7083H5.73096V5.5083Z" fill="#0E0D39"/>
<path d="M48.9312 5.5083H56.1312V12.7083H48.9312V5.5083Z" fill="#0E0D39"/>
<path d="M36.9312 7.90869H39.3312V10.3087H36.9312V7.90869Z" fill="#0E0D39"/>
<path d="M27.3311 10.3086H29.7311V12.7086H27.3311V10.3086Z" fill="#0E0D39"/>
<path d="M32.1313 10.3086H36.9313V17.5086H39.3313V22.3086H36.9313V19.9086H34.5304V12.7086H32.1313V10.3086Z" fill="#0E0D39"/>
<path d="M39.3311 10.3086H41.732V17.5086H39.3311V10.3086Z" fill="#0E0D39"/>
<path d="M24.9312 12.7085H27.3312V19.9085H24.9312V22.3085H22.5312V24.7085H20.1312V22.3085H12.9312V19.9085H22.5312V17.5085H24.9312V12.7085Z" fill="#0E0D39"/>
<path d="M29.731 12.7085H32.131V17.5085H29.731V12.7085Z" fill="#0E0D39"/>
<path d="M29.7312 19.9087H34.5302V22.3087H32.1312V24.7087H24.9312V22.3087H29.7312V19.9087Z" fill="#0E0D39"/>
<path d="M41.731 19.9087H44.131V22.3087H41.731V19.9087Z" fill="#0E0D39"/>
<path d="M46.5312 19.9087H58.5312V22.3087H60.9312V27.1087H58.5312V24.7087H56.1312V22.3087H53.7312V27.1087H58.5312V29.5087H53.7312V31.9087H51.3312V22.3087H46.5312V19.9087Z" fill="#0E0D39"/>
<path d="M34.5303 22.3086H36.9312V24.7086H34.5303V22.3086Z" fill="#0E0D39"/>
<path d="M15.3311 24.7085H20.1311V27.1085H22.5311V29.5085H20.1311V31.9085H15.3311V29.5085H17.7311V27.1085H15.3311V24.7085Z" fill="#0E0D39"/>
<path d="M22.5312 24.7085H24.9313V27.1085H22.5312V24.7085Z" fill="#0E0D39"/>
<path d="M46.5312 24.7085H48.9312V27.1085H46.5312V24.7085Z" fill="#0E0D39"/>
<path d="M12.9312 27.1084H15.3312V29.5093H12.9312V27.1084Z" fill="#0E0D39"/>
<path d="M27.3311 27.1084H29.7311V31.9084H27.3311V27.1084Z" fill="#0E0D39"/>
<path d="M34.5303 27.1084H36.9312V29.5093H34.5303V27.1084Z" fill="#0E0D39"/>
<path d="M44.1313 27.1084H46.5323V29.5093H44.1313V27.1084Z" fill="#0E0D39"/>
<path d="M22.5312 29.5083H24.9313V31.9083H27.3313V34.3074H29.7313V31.9083H32.1312V29.5083H34.5303V34.3074H32.1312V36.7083H29.7313V39.1083H27.3313V36.7083H24.9313V34.3074H22.5312V29.5083Z" fill="#0E0D39"/>
<path d="M58.5312 29.5083H60.9312V36.7083H58.5312V29.5083Z" fill="#0E0D39"/>
<path d="M0.931152 34.3076H5.73115V36.7085H0.931152V34.3076Z" fill="#0E0D39"/>
<path d="M34.5303 34.3076H36.9312V36.7085H34.5303V34.3076Z" fill="#0E0D39"/>
<path d="M0.931152 39.1084H8.13115V41.5093H0.931152V39.1084Z" fill="#0E0D39"/>
<path d="M34.5303 39.1084H36.9312V41.5093H34.5303V39.1084Z" fill="#0E0D39"/>
<path d="M58.5312 39.1084H60.9312V46.3093H58.5312V39.1084Z" fill="#0E0D39"/>
<path d="M51.3312 46.3087V43.9087H53.7312V41.5087H51.3312V36.7087H56.1312V31.9087H53.7312V34.3087H51.3312V31.9087H48.9312V39.1087H44.1312V36.7087H46.5312V34.3078H41.7312V27.1078H39.3312V29.5087H36.9312V31.9087H39.3312V36.7087H36.9312V39.1087H39.3312V41.5087H36.9312V46.3087H39.3312V48.7087H36.9312V46.3087H34.5302V41.5087H29.7312V43.9087H22.5312V41.5087H24.9312V36.7087H22.5312V39.1087H12.9312V36.7087H20.1312V34.3078H12.9312V31.9078H10.5312V27.1078H12.9312V24.7087H8.13115V19.9087H5.73115V22.3087H3.33115V27.1087H5.73115V29.5087H0.931152V31.9087H8.13115V36.7087H10.5312V41.5087H20.1312V48.7087H29.7312V46.3087H32.1312V48.7087H34.5312V51.1087H32.1312V53.5087H29.7312V55.9087H27.3312V53.5087H24.9312V51.1087H22.5312V53.5087H20.1312V55.9087H24.9312V58.3087H22.5312V60.7087H32.1312V55.9087H34.5312V60.7087H36.9312V55.9087H41.7312V53.5087H39.3312V51.1087H48.9312V53.5087H51.3312V51.1087H53.7312V48.7087H56.1312V51.1087H58.5312V46.3087H51.3312ZM48.9312 48.7087H41.7312V41.5087H48.9312V48.7087Z" fill="#0E0D39"/>
<path d="M44.1313 43.9087H46.5323V46.3096H44.1313V43.9087Z" fill="#0E0D39"/>
<path d="M0.931152 43.9087V60.7087H17.7312V43.9087H0.931152ZM15.3312 58.3087H3.33115V46.3087H15.3312V58.3087Z" fill="#0E0D39"/>
<path d="M5.73096 48.7085H12.931V55.9085H5.73096V48.7085Z" fill="#0E0D39"/>
<path d="M29.731 48.7085H32.131V51.1085H29.731V48.7085Z" fill="#0E0D39"/>
<path d="M27.3311 51.1084H29.7311V53.5093H27.3311V51.1084Z" fill="#0E0D39"/>
<path d="M44.131 53.5083H46.531V55.9083H51.331V53.5083H60.931V55.9083H56.131V58.3083H53.731V60.7083H48.931V58.3083H44.131V60.7083H41.731V55.9083H44.131V53.5083Z" fill="#0E0D39"/>
<path d="M58.5312 58.3086H60.9312V60.7086H58.5312V58.3086Z" fill="#0E0D39"/>
</g>
<defs>
<clipPath id="clip0_676_1995">
<rect width="60" height="60" fill="white" transform="translate(0.931152 0.708496)"/>
</clipPath>
</defs>
</svg>
