<svg width="390" height="330" viewBox="0 0 390 330" fill="none" xmlns="http://www.w3.org/2000/svg">
<circle cx="195.5" cy="166.5" r="145.5" fill="#35558A"/>
<path d="M301.925 162.347C301.925 162.347 305.973 154.817 305.015 152.85C304.057 150.883 301.781 146.67 301.019 144.517C300.257 142.365 302.893 133.496 305.376 131.828C306.931 130.798 309.413 132.662 309.115 134.784C308.816 136.906 307.745 141.634 307.745 141.634C307.745 141.634 311.71 134.31 311.865 132.487C312.019 130.664 308.157 122.517 308.836 119.241C309.187 117.511 312.699 116.78 314.069 118.603C315.439 120.426 317.097 130.087 317.107 130.118C317.151 129.47 317.276 128.83 317.478 128.213C317.674 127.306 318.065 126.451 318.261 125.535C318.637 123.696 318.637 121.801 318.261 119.962C318.076 119.035 317.797 118.119 317.561 117.202C317.453 116.87 317.429 116.516 317.489 116.172C317.579 115.929 317.729 115.713 317.925 115.543C318.122 115.374 318.358 115.257 318.611 115.204C319.099 115.086 319.607 115.083 320.097 115.193C320.586 115.304 321.044 115.526 321.433 115.842C322.212 116.476 322.821 117.294 323.205 118.222C324.034 119.995 324.362 121.961 324.153 123.907C324.039 124.937 323.926 127.543 323.123 128.264C323.184 128.202 326.316 125.236 327.51 127.337C328.303 129.048 328.717 130.91 328.726 132.796C328.726 132.796 334.638 129.459 334.906 134.156C335.174 138.853 328.664 154.694 326.388 156.816C324.111 158.938 322 160.75 322 160.75L316.85 171.761" fill="white"/>
<path d="M316.984 172.255C316.913 172.271 316.839 172.271 316.768 172.255C316.645 172.197 316.55 172.094 316.502 171.967C316.454 171.84 316.457 171.7 316.51 171.575L321.66 160.554C321.689 160.489 321.736 160.432 321.794 160.39C321.794 160.39 323.926 158.556 326.161 156.465C328.396 154.374 334.813 138.832 334.514 134.217C334.533 133.866 334.461 133.516 334.306 133.201C334.151 132.885 333.918 132.615 333.629 132.415C332.362 131.725 329.91 132.796 329.066 133.27C328.989 133.315 328.902 133.339 328.813 133.339C328.725 133.339 328.637 133.315 328.561 133.27C328.483 133.225 328.418 133.16 328.373 133.083C328.328 133.005 328.304 132.917 328.304 132.827C328.285 131.049 327.896 129.295 327.16 127.677C327.1 127.551 327.011 127.442 326.9 127.357C326.788 127.273 326.659 127.217 326.522 127.193C325.667 127.079 324.287 128.037 323.566 128.717C323.518 128.77 323.46 128.812 323.396 128.841C323.331 128.871 323.262 128.887 323.191 128.888C323.12 128.889 323.05 128.875 322.984 128.848C322.919 128.821 322.86 128.78 322.811 128.729C322.762 128.678 322.724 128.617 322.699 128.551C322.675 128.484 322.664 128.413 322.668 128.343C322.673 128.272 322.691 128.203 322.723 128.14C322.755 128.076 322.8 128.021 322.855 127.975C323.36 127.491 323.555 125.4 323.638 124.504C323.638 124.278 323.638 124.092 323.689 123.938C323.893 122.084 323.583 120.21 322.793 118.52C322.443 117.67 321.887 116.919 321.176 116.336C320.849 116.071 320.466 115.883 320.055 115.787C319.645 115.69 319.218 115.688 318.807 115.78C318.639 115.813 318.482 115.886 318.348 115.991C318.213 116.097 318.106 116.233 318.034 116.388C317.999 116.652 318.027 116.92 318.117 117.171C318.189 117.49 318.282 117.809 318.364 118.129C318.529 118.736 318.694 119.344 318.817 119.962C319.343 122.36 319.19 124.857 318.374 127.172C318.222 127.583 318.095 128.002 317.993 128.429C317.993 128.552 317.931 128.717 317.88 128.913C317.753 129.311 317.67 129.722 317.633 130.138C317.657 130.275 317.627 130.416 317.547 130.53C317.468 130.644 317.347 130.722 317.21 130.746C317.074 130.771 316.933 130.74 316.819 130.661C316.705 130.582 316.627 130.46 316.603 130.324C316.18 127.852 314.728 120.456 313.667 118.994C313.329 118.624 312.894 118.356 312.412 118.22C311.93 118.084 311.42 118.084 310.938 118.221C310.587 118.258 310.253 118.389 309.972 118.602C309.69 118.814 309.472 119.099 309.341 119.426C308.96 121.27 310.196 124.988 311.195 127.975C311.978 130.334 312.452 131.828 312.39 132.61C312.236 134.485 308.631 141.201 308.27 141.963C308.211 142.071 308.115 142.154 308 142.198C307.885 142.241 307.757 142.242 307.642 142.2C307.567 142.186 307.496 142.157 307.434 142.113C307.372 142.069 307.32 142.013 307.282 141.947C307.244 141.882 307.22 141.809 307.213 141.733C307.206 141.658 307.215 141.581 307.24 141.51C307.24 141.458 308.27 136.782 308.6 134.701C308.64 134.239 308.55 133.774 308.338 133.361C308.127 132.947 307.803 132.601 307.405 132.363C307.158 132.175 306.861 132.064 306.552 132.044C306.242 132.024 305.933 132.095 305.664 132.25C303.264 133.857 300.854 142.55 301.544 144.332C302.028 145.681 303.171 147.916 304.171 149.894C304.716 150.924 305.201 151.954 305.53 152.623C306.498 154.683 303.079 161.286 302.378 162.573C302.348 162.633 302.306 162.687 302.254 162.73C302.203 162.774 302.143 162.807 302.079 162.827C302.015 162.847 301.947 162.854 301.88 162.848C301.813 162.841 301.748 162.822 301.688 162.789C301.628 162.758 301.574 162.715 301.53 162.663C301.487 162.61 301.454 162.55 301.434 162.484C301.414 162.419 301.407 162.351 301.413 162.283C301.42 162.215 301.44 162.149 301.472 162.089C302.986 159.267 305.18 154.313 304.562 153.056C304.243 152.366 303.759 151.408 303.223 150.357C302.233 148.513 301.339 146.619 300.545 144.682C299.69 142.282 302.523 133.125 305.098 131.395C305.531 131.124 306.035 130.989 306.545 131.007C307.056 131.026 307.549 131.197 307.961 131.498C308.531 131.839 308.992 132.337 309.288 132.932C309.583 133.528 309.702 134.195 309.63 134.856C309.516 135.659 309.3 136.823 309.063 137.946C310.035 136.205 310.805 134.36 311.36 132.446C311.139 130.996 310.755 129.576 310.217 128.212C309.125 124.947 307.899 121.25 308.342 119.128C308.506 118.604 308.816 118.137 309.235 117.783C309.655 117.429 310.167 117.203 310.711 117.13C311.387 116.946 312.101 116.958 312.77 117.164C313.439 117.37 314.036 117.761 314.491 118.293C315.459 119.591 316.551 124.473 317.138 127.471L317.386 126.729C317.535 126.303 317.662 125.87 317.767 125.431C318.127 123.661 318.127 121.836 317.767 120.065C317.653 119.468 317.489 118.881 317.324 118.293L317.066 117.325C316.931 116.899 316.91 116.444 317.004 116.007C317.134 115.677 317.346 115.387 317.62 115.163C317.894 114.939 318.221 114.79 318.57 114.73C319.133 114.591 319.72 114.585 320.287 114.71C320.853 114.835 321.383 115.088 321.835 115.451C322.684 116.136 323.349 117.02 323.771 118.026C324.649 119.883 325.005 121.945 324.801 123.989C324.801 124.134 324.802 124.319 324.75 124.535C324.678 125.308 324.596 126.08 324.462 126.76C325.131 126.297 325.935 126.069 326.748 126.111C327.045 126.162 327.325 126.281 327.566 126.46C327.808 126.639 328.004 126.872 328.139 127.141C328.885 128.673 329.31 130.342 329.385 132.044C330.518 131.529 332.722 130.736 334.205 131.539C334.657 131.814 335.026 132.204 335.276 132.67C335.526 133.135 335.647 133.659 335.627 134.186C335.946 139.13 329.272 155.075 326.944 157.248C324.946 159.112 323.04 160.771 322.628 161.131L317.478 172.039C317.425 172.118 317.35 172.18 317.262 172.219C317.175 172.257 317.078 172.27 316.984 172.255Z" fill="#231F20"/>
<path d="M311.703 112.734L317.815 115.201L329.712 85.7257L323.599 83.2585L311.703 112.734Z" fill="white"/>
<path d="M317.797 115.76C317.736 115.769 317.673 115.769 317.612 115.76L311.504 113.288C311.441 113.263 311.384 113.225 311.335 113.178C311.287 113.131 311.248 113.075 311.221 113.013C311.194 112.95 311.18 112.884 311.179 112.816C311.178 112.748 311.191 112.681 311.216 112.618L323.112 83.1395C323.165 83.0143 323.265 82.9146 323.39 82.8614C323.516 82.8099 323.656 82.8099 323.782 82.8614L329.9 85.2716C329.963 85.2966 330.02 85.3337 330.069 85.3809C330.117 85.4281 330.156 85.4843 330.183 85.5465C330.21 85.6087 330.224 85.6756 330.225 85.7433C330.226 85.811 330.213 85.8782 330.188 85.9411L318.282 115.42C318.228 115.545 318.129 115.645 318.003 115.698C317.941 115.734 317.87 115.755 317.797 115.76ZM312.39 112.474L317.54 114.534L329.045 86.0132L323.895 83.9532L312.39 112.474Z" fill="#231F20"/>
<path d="M315.354 103.597L321.467 106.064L322.022 104.689L315.909 102.221L315.354 103.597Z" fill="#231F20"/>
<path d="M321.454 106.593C321.389 106.603 321.323 106.603 321.258 106.593L315.15 104.121C315.088 104.096 315.03 104.059 314.982 104.011C314.934 103.964 314.896 103.907 314.87 103.845C314.844 103.783 314.831 103.716 314.831 103.648C314.831 103.58 314.846 103.513 314.872 103.451L315.418 102.081C315.471 101.956 315.571 101.857 315.696 101.803C315.76 101.775 315.828 101.761 315.897 101.761C315.966 101.761 316.035 101.775 316.098 101.803L322.206 104.275C322.269 104.3 322.326 104.337 322.374 104.385C322.423 104.432 322.461 104.489 322.487 104.551C322.513 104.614 322.526 104.681 322.525 104.748C322.525 104.816 322.511 104.883 322.484 104.945L321.938 106.315C321.885 106.44 321.785 106.54 321.66 106.593C321.592 106.607 321.522 106.607 321.454 106.593ZM316.016 103.328L321.166 105.388L321.33 104.976L316.18 102.916L316.016 103.328Z" fill="#231F20"/>
<path d="M323.38 101.927C323.315 101.937 323.249 101.937 323.184 101.927L319.342 100.31C319.217 100.257 319.117 100.158 319.063 100.033C319.009 99.9085 319.006 99.7677 319.054 99.6405C319.107 99.5126 319.207 99.4106 319.335 99.3567C319.462 99.3027 319.605 99.301 319.734 99.3521L323.576 100.907C323.639 100.932 323.696 100.969 323.744 101.017C323.792 101.064 323.831 101.121 323.857 101.183C323.883 101.246 323.896 101.313 323.895 101.38C323.895 101.448 323.881 101.515 323.854 101.577C323.82 101.677 323.757 101.764 323.672 101.826C323.587 101.889 323.485 101.924 323.38 101.927Z" fill="#231F20"/>
<path d="M324.41 99.3828C324.346 99.3981 324.279 99.3981 324.214 99.3828L321.361 98.2498C321.234 98.1979 321.133 98.0976 321.08 97.9711C321.027 97.8446 321.026 97.7021 321.078 97.5751C321.13 97.4481 321.23 97.3469 321.357 97.2938C321.483 97.2406 321.626 97.24 321.753 97.2919L324.596 98.4455C324.658 98.4704 324.716 98.5076 324.764 98.5547C324.813 98.6019 324.852 98.6582 324.879 98.7204C324.905 98.7826 324.92 98.8494 324.92 98.9171C324.921 98.9848 324.909 99.0521 324.884 99.115C324.837 99.1986 324.768 99.2678 324.684 99.315C324.601 99.3622 324.506 99.3856 324.41 99.3828Z" fill="#231F20"/>
<path d="M325.43 96.8386C325.368 96.8482 325.306 96.8482 325.244 96.8386L322.391 95.685C322.266 95.6324 322.166 95.5332 322.112 95.4084C322.058 95.2835 322.055 95.1427 322.103 95.0155C322.159 94.8912 322.261 94.7932 322.388 94.7415C322.514 94.6898 322.655 94.6884 322.783 94.7374L325.625 95.8807C325.693 95.8935 325.758 95.9196 325.815 95.9573C325.873 95.9951 325.922 96.0438 325.961 96.1007C326 96.1576 326.027 96.2216 326.041 96.289C326.055 96.3564 326.055 96.4259 326.043 96.4935C326.03 96.5611 326.004 96.6256 325.966 96.6832C325.928 96.7407 325.88 96.7903 325.823 96.829C325.766 96.8678 325.702 96.8949 325.634 96.9089C325.567 96.9229 325.497 96.9235 325.43 96.9107V96.8386Z" fill="#231F20"/>
<path d="M326.46 94.2841H326.264L322.422 92.7288C322.354 92.7079 322.29 92.6729 322.236 92.626C322.181 92.579 322.137 92.5213 322.107 92.4564C322.076 92.3914 322.059 92.3208 322.057 92.2491C322.056 92.1773 322.069 92.1059 322.096 92.0396C322.124 91.9732 322.165 91.9133 322.217 91.8637C322.268 91.8142 322.33 91.776 322.398 91.7517C322.465 91.7273 322.537 91.7174 322.609 91.7225C322.68 91.7276 322.75 91.7476 322.814 91.7812L326.656 93.3262C326.718 93.3511 326.776 93.3883 326.824 93.4357C326.872 93.4831 326.91 93.5397 326.936 93.6021C326.962 93.6646 326.975 93.7316 326.975 93.7992C326.974 93.8668 326.96 93.9337 326.934 93.9957C326.894 94.0866 326.827 94.1629 326.742 94.2145C326.657 94.2661 326.559 94.2904 326.46 94.2841Z" fill="#231F20"/>
<path d="M327.49 91.7403C327.425 91.7502 327.359 91.7502 327.294 91.7403L324.451 90.5867C324.324 90.5362 324.223 90.4372 324.168 90.3117C324.114 90.1861 324.112 90.0442 324.163 89.9172C324.213 89.7902 324.312 89.6884 324.438 89.6343C324.564 89.5803 324.705 89.5783 324.832 89.6288L327.686 90.7824C327.748 90.8072 327.806 90.8444 327.854 90.8918C327.902 90.9392 327.94 90.9958 327.966 91.0583C327.992 91.1207 328.005 91.1877 328.005 91.2554C328.004 91.323 327.99 91.3898 327.964 91.4519C327.92 91.5402 327.853 91.6142 327.769 91.6653C327.685 91.7164 327.588 91.7424 327.49 91.7403Z" fill="#231F20"/>
<path d="M328.52 89.1963C328.455 89.2116 328.388 89.2116 328.324 89.1963L325.471 88.053C325.344 88.0011 325.243 87.9008 325.19 87.7743C325.137 87.6478 325.136 87.5054 325.188 87.3783C325.24 87.2513 325.34 87.1501 325.466 87.097C325.593 87.0439 325.735 87.0432 325.862 87.0951L328.705 88.2487C328.768 88.2737 328.826 88.3108 328.874 88.358C328.923 88.4051 328.961 88.4614 328.988 88.5236C329.015 88.5858 329.029 88.6527 329.03 88.7204C329.031 88.7881 329.019 88.8553 328.994 88.9182C328.948 89.0038 328.88 89.075 328.796 89.1241C328.712 89.1732 328.617 89.1982 328.52 89.1963Z" fill="#231F20"/>
<path d="M324.558 83.6515L328.694 85.3208L330.363 81.1851L326.228 79.5158L324.558 83.6515Z" fill="white"/>
<path d="M328.674 85.8896C328.613 85.8994 328.55 85.8994 328.489 85.8896L324.369 84.221C324.244 84.1678 324.144 84.0681 324.091 83.9429C324.044 83.8166 324.044 83.6778 324.091 83.5515L325.77 79.4315C325.795 79.3686 325.832 79.3112 325.879 79.2626C325.926 79.214 325.982 79.1752 326.045 79.1485C326.107 79.1217 326.174 79.1074 326.241 79.1065C326.309 79.1056 326.376 79.118 326.439 79.1431L330.559 80.8117C330.623 80.8366 330.682 80.8741 330.731 80.922C330.781 80.97 330.82 81.0273 330.847 81.0907C330.874 81.1541 330.888 81.2222 330.888 81.291C330.888 81.3599 330.874 81.428 330.848 81.4915L329.179 85.6115C329.132 85.7029 329.059 85.7782 328.969 85.8277C328.879 85.8773 328.777 85.8988 328.674 85.8896ZM325.214 83.4279L328.396 84.7051L329.684 81.5224L326.501 80.2452L325.214 83.4279Z" fill="#231F20"/>
<path d="M329.622 80.9047L326.944 79.8232L328.973 76.7744L330.281 77.2997L329.622 80.9047Z" fill="white"/>
<path d="M329.622 81.4198C329.557 81.4297 329.491 81.4297 329.426 81.4198L326.748 80.3383C326.677 80.3086 326.613 80.2636 326.561 80.2064C326.51 80.1493 326.471 80.0814 326.449 80.0077C326.426 79.9339 326.42 79.8561 326.431 79.7798C326.442 79.7034 326.469 79.6304 326.511 79.5658L328.571 76.4758C328.638 76.3765 328.737 76.303 328.851 76.2674C328.965 76.2318 329.088 76.2363 329.2 76.2801L330.497 76.8054C330.608 76.8507 330.701 76.9326 330.759 77.0375C330.817 77.1424 330.837 77.2641 330.817 77.3822L330.158 80.9872C330.138 81.1064 330.076 81.2145 329.983 81.292C329.891 81.3694 329.774 81.4112 329.653 81.4095L329.622 81.4198ZM327.716 79.5864L329.231 80.1941L329.694 77.6191L329.169 77.4028L327.716 79.5864Z" fill="#231F20"/>
<path d="M334.545 64.8882L329.416 76.9495L329.869 77.1349L334.545 64.8882Z" fill="white"/>
<path d="M329.9 77.6496C329.835 77.6604 329.769 77.6604 329.704 77.6496L329.251 77.4642C329.126 77.411 329.026 77.3113 328.973 77.1861C328.942 77.1237 328.926 77.0549 328.926 76.9853C328.926 76.9156 328.942 76.8469 328.973 76.7844L334.123 64.7334C334.184 64.6244 334.283 64.5414 334.401 64.4999C334.519 64.4584 334.648 64.4612 334.764 64.5079C334.88 64.5546 334.975 64.6418 335.032 64.7535C335.088 64.8651 335.102 64.9934 335.071 65.1145L330.394 77.3509C330.372 77.4161 330.337 77.4761 330.291 77.5274C330.245 77.5787 330.189 77.6203 330.127 77.6496C330.052 77.6614 329.975 77.6614 329.9 77.6496Z" fill="#231F20"/>
<path d="M321.844 116.87C322.136 116.148 319.319 114.33 315.552 112.809C311.786 111.289 308.496 110.643 308.205 111.365C307.913 112.088 310.73 113.906 314.496 115.426C318.262 116.947 321.552 117.593 321.844 116.87Z" fill="white"/>
<path d="M320.939 117.665C320.406 117.653 319.875 117.591 319.353 117.48C317.615 117.104 315.915 116.569 314.275 115.884C313.059 115.389 307.013 112.855 307.703 111.156C307.961 110.507 308.867 110.373 310.649 110.723C312.387 111.096 314.087 111.627 315.727 112.309C317.38 112.971 318.969 113.781 320.475 114.73C322 115.76 322.535 116.44 322.299 117.089C322.134 117.459 321.66 117.665 320.939 117.665ZM308.754 111.578C309.166 112.124 311.082 113.484 314.666 114.926C318.251 116.368 320.568 116.728 321.248 116.615C320.836 116.069 318.92 114.709 315.336 113.267C311.751 111.825 309.434 111.475 308.754 111.578Z" fill="#231F20"/>
<path d="M306.334 130.242L309.588 131.55L316.304 114.895C316.304 114.895 316.139 114.297 314.841 113.772C313.544 113.247 313.049 113.587 313.049 113.587L306.334 130.242Z" fill="white"/>
<path d="M309.588 132.065C309.524 132.076 309.457 132.076 309.393 132.065L306.138 130.746C306.075 130.721 306.018 130.684 305.969 130.637C305.92 130.59 305.882 130.534 305.855 130.471C305.828 130.409 305.814 130.342 305.813 130.275C305.812 130.207 305.824 130.14 305.849 130.077L312.575 113.422C312.613 113.33 312.678 113.251 312.761 113.195C312.874 113.113 313.544 112.721 315.037 113.319C316.531 113.916 316.767 114.647 316.798 114.792C316.834 114.899 316.834 115.014 316.798 115.121L310.072 131.776C310.019 131.902 309.92 132.001 309.794 132.054C309.727 132.074 309.657 132.078 309.588 132.065ZM307.003 130.005L309.3 130.932L315.737 114.987C315.434 114.673 315.06 114.437 314.646 114.297C314.269 114.12 313.856 114.035 313.441 114.05L307.003 130.005Z" fill="#231F20"/>
<path d="M311.925 132.507C312.085 132.111 310.551 131.119 308.499 130.291C306.447 129.463 304.654 129.112 304.494 129.508C304.334 129.903 305.869 130.896 307.921 131.724C309.973 132.552 311.765 132.903 311.925 132.507Z" fill="white"/>
<path d="M311.36 133.146C310.1 133.022 308.869 132.695 307.714 132.178C306.148 131.55 303.594 130.334 304.006 129.294C304.253 128.686 305.128 128.769 305.87 128.923C306.829 129.129 307.767 129.422 308.672 129.799C309.588 130.155 310.47 130.593 311.308 131.107C311.937 131.519 312.637 132.065 312.39 132.683C312.235 133.023 311.854 133.146 311.36 133.146ZM305.489 129.891C307.157 130.926 308.989 131.668 310.907 132.085C309.239 131.051 307.407 130.309 305.489 129.891Z" fill="#231F20"/>
<path d="M326.81 144.6C326.543 144.602 326.278 144.557 326.027 144.466C325.645 144.318 325.297 144.093 325.007 143.804C324.716 143.515 324.488 143.169 324.338 142.787C323.848 141.543 323.769 140.176 324.111 138.883C323.658 139.409 323.164 139.913 322.628 140.439C322.056 141.053 321.352 141.528 320.568 141.829C320.121 141.999 319.634 142.037 319.165 141.941C318.697 141.844 318.265 141.616 317.921 141.283C317.025 140.305 317.355 138.863 317.674 137.853C318.739 134.161 320.521 130.713 322.917 127.708C322.959 127.656 323.012 127.613 323.072 127.581C323.131 127.55 323.197 127.531 323.264 127.525C323.331 127.519 323.399 127.527 323.463 127.548C323.527 127.569 323.587 127.602 323.638 127.646C323.69 127.689 323.733 127.742 323.764 127.801C323.796 127.861 323.815 127.926 323.821 127.994C323.827 128.061 323.819 128.129 323.798 128.193C323.777 128.257 323.744 128.316 323.699 128.367C321.395 131.276 319.68 134.607 318.652 138.173C318.271 139.378 318.282 140.14 318.652 140.583C318.863 140.765 319.119 140.887 319.393 140.934C319.667 140.981 319.949 140.952 320.208 140.851C320.84 140.596 321.407 140.201 321.866 139.697C323.4 138.288 324.651 136.6 325.553 134.722C325.581 134.661 325.621 134.605 325.67 134.56C325.72 134.514 325.778 134.478 325.841 134.455C325.904 134.432 325.972 134.422 326.039 134.425C326.107 134.429 326.173 134.446 326.233 134.475C326.357 134.531 326.454 134.634 326.502 134.762C326.551 134.889 326.546 135.031 326.491 135.155C325.749 136.762 324.214 140.109 325.214 142.365C325.399 142.861 325.767 143.267 326.244 143.498C326.59 143.578 326.952 143.567 327.293 143.466C327.634 143.365 327.943 143.177 328.19 142.921C328.757 142.318 329.213 141.621 329.54 140.861L331.301 137.256C331.363 137.135 331.47 137.043 331.599 137C331.728 136.958 331.869 136.968 331.991 137.029C332.051 137.058 332.106 137.099 332.151 137.148C332.195 137.198 332.23 137.256 332.252 137.32C332.274 137.383 332.283 137.45 332.279 137.517C332.275 137.584 332.257 137.649 332.228 137.709L330.466 141.314C330.089 142.199 329.555 143.008 328.891 143.704C328.326 144.241 327.588 144.559 326.81 144.6Z" fill="#231F20"/>
<path d="M307.786 141.633C307.786 141.633 318.137 145.753 319.342 151.181L307.786 141.633Z" fill="white"/>
<path d="M319.342 151.697C319.225 151.699 319.11 151.66 319.018 151.587C318.925 151.514 318.862 151.41 318.838 151.295C317.705 146.145 307.703 142.149 307.6 142.107C307.538 142.082 307.48 142.045 307.432 141.998C307.383 141.951 307.344 141.895 307.317 141.832C307.291 141.77 307.276 141.703 307.275 141.636C307.275 141.568 307.287 141.501 307.312 141.438C307.365 141.312 307.464 141.212 307.589 141.159C307.714 141.105 307.854 141.102 307.982 141.149C308.414 141.325 318.591 145.414 319.837 151.068C319.852 151.135 319.854 151.203 319.842 151.27C319.831 151.337 319.806 151.401 319.77 151.459C319.734 151.516 319.686 151.566 319.63 151.605C319.575 151.644 319.512 151.672 319.445 151.686L319.342 151.697Z" fill="#231F20"/>
<path d="M167.264 255.115C153.357 254.876 142.789 257.365 138.544 270.609C133.392 286.683 144.589 305.64 161.467 305.64H207.77C224.412 305.64 237.916 294.499 235.312 278.061C233.5 266.62 222.823 256.07 211.241 255.871L167.264 255.115Z" fill="#231F20"/>
<path d="M238.807 306.155H131.882C131.758 306.154 131.638 306.107 131.545 306.024C131.452 305.94 131.393 305.826 131.378 305.702C129.565 290.592 143.089 255.994 143.666 254.532C143.71 254.439 143.778 254.359 143.863 254.301C143.948 254.243 144.047 254.209 144.15 254.202L230.443 255.716C230.547 255.718 230.648 255.752 230.733 255.813C230.817 255.873 230.882 255.958 230.917 256.056C235.789 269.003 239.281 305.218 239.322 305.589C239.327 305.66 239.317 305.731 239.294 305.798C239.271 305.865 239.235 305.927 239.188 305.98C239.14 306.035 239.082 306.078 239.016 306.108C238.95 306.139 238.879 306.155 238.807 306.155ZM138.584 272.251C133.619 288.053 144.984 305.125 161.547 305.125H207.929C224.151 305.125 237.166 292.727 234.558 276.715C232.731 265.498 222.556 256.586 211.192 256.391L166.937 255.629C153.457 255.397 142.624 259.389 138.584 272.251Z" fill="#231F20"/>
<path d="M225.808 258.93C221.4 229.925 202.407 140.264 202.407 140.264C186.122 144.991 175.452 141.232 175.452 141.232C175.452 141.232 145.932 235.456 141.008 258.93H225.808Z" fill="#35558A"/>
<path d="M301.307 155.466L277.37 195.42L239.579 149.07C234.491 140.315 210.307 140.315 210.307 140.315C210.307 140.315 172.897 137.781 165.378 140.233C165.378 140.233 135.869 149.255 130.008 155.683C124.147 162.11 140.607 191.774 141.41 222.88C142.213 253.986 128.813 285.38 128.813 285.38L168.087 296.556C168.087 296.556 175.565 246.271 175.565 222.2C175.565 172.894 175.451 141.252 175.451 141.252L202.159 142.107C202.159 142.107 201.284 188.972 199.924 224.909C198.163 271.784 208.36 296.556 208.36 296.556L244.06 287.142C244.06 287.142 232.39 244.736 232.544 222.252C232.73 215.559 233.367 208.887 234.45 202.28C246.408 216.968 268.265 249.866 285.559 242.985C298.763 237.722 323.226 171.267 323.226 171.267L301.307 155.466Z" fill="white"/>
<path d="M208.36 297.04C208.258 297.039 208.159 297.009 208.075 296.952C207.99 296.895 207.925 296.814 207.886 296.72C207.783 296.473 197.669 271.31 199.409 224.857C200.676 191.331 201.541 147.762 201.634 142.571L175.977 141.747C175.977 146.114 176.08 176.87 176.08 222.169C176.08 246.003 168.674 296.102 168.592 296.607C168.58 296.679 168.553 296.747 168.513 296.808C168.473 296.868 168.421 296.92 168.36 296.958C168.298 296.997 168.229 297.023 168.158 297.033C168.086 297.044 168.013 297.039 167.943 297.019L128.669 285.844C128.599 285.822 128.535 285.786 128.48 285.738C128.425 285.69 128.381 285.632 128.35 285.566C128.319 285.5 128.302 285.428 128.3 285.356C128.298 285.283 128.312 285.211 128.339 285.143C128.473 284.834 141.729 253.512 140.895 222.869C140.493 207.172 136.116 191.969 132.593 179.671C129.071 167.373 126.568 158.669 129.658 155.27C135.539 148.781 164.049 140.016 165.265 139.645C172.774 137.194 208.834 139.645 210.368 139.707C211.594 139.707 234.882 139.862 240.043 148.72L277.37 194.524L300.906 155.198C300.942 155.137 300.991 155.084 301.05 155.043C301.109 155.003 301.175 154.975 301.245 154.961C301.317 154.946 301.391 154.946 301.462 154.962C301.533 154.978 301.6 155.009 301.657 155.054L323.566 170.885C323.656 170.95 323.722 171.042 323.756 171.148C323.789 171.254 323.787 171.368 323.751 171.472C322.721 174.202 299.031 238.206 285.795 243.49C284.184 244.133 282.463 244.462 280.728 244.458C266.565 244.458 250.569 223.796 239.528 209.603C237.849 207.43 236.252 205.359 234.79 203.547C233.805 209.723 233.234 215.958 233.08 222.21C232.926 244.417 244.462 286.585 244.575 287.007C244.602 287.071 244.616 287.139 244.616 287.208C244.616 287.277 244.602 287.346 244.575 287.409C244.543 287.468 244.498 287.519 244.445 287.56C244.392 287.601 244.331 287.63 244.266 287.646L208.494 297.04C208.45 297.049 208.404 297.049 208.36 297.04ZM175.452 140.747L202.159 141.602C202.227 141.604 202.293 141.618 202.354 141.646C202.416 141.673 202.471 141.712 202.517 141.761C202.563 141.81 202.599 141.868 202.622 141.931C202.646 141.993 202.657 142.061 202.654 142.128C202.654 142.591 201.758 189.405 200.419 224.929C198.812 267.88 207.361 292.497 208.659 295.948L243.38 286.74C242.072 281.888 231.844 243.191 231.988 222.159C232.189 215.496 232.842 208.854 233.945 202.28C233.962 202.182 234.005 202.091 234.071 202.016C234.136 201.941 234.221 201.886 234.316 201.857C234.413 201.833 234.514 201.836 234.609 201.867C234.704 201.898 234.788 201.955 234.852 202.032C236.51 204.092 238.374 206.472 240.342 209.016C252.485 224.692 270.819 248.382 285.373 242.584C297.733 237.67 320.62 176.859 322.608 171.514L301.462 156.249L277.844 195.708C277.799 195.779 277.739 195.838 277.667 195.881C277.596 195.924 277.515 195.949 277.432 195.955C277.35 195.962 277.268 195.949 277.193 195.916C277.117 195.884 277.051 195.834 276.999 195.77L239.219 149.42C234.285 140.943 210.575 140.85 210.379 140.85C209.967 140.85 172.949 138.348 165.615 140.747C165.306 140.84 136.157 149.801 130.461 156.074C127.762 159.051 130.348 168.073 133.623 179.496C137.156 191.856 141.554 207.131 141.966 222.952C142.718 251.606 131.306 280.817 129.555 285.123L167.665 295.979C168.489 290.303 175.05 244.644 175.05 222.282C175.05 173.543 174.947 141.644 174.937 141.335C174.936 141.265 174.951 141.195 174.979 141.131C175.008 141.068 175.049 141.01 175.101 140.964C175.141 140.905 175.192 140.855 175.253 140.817C175.313 140.78 175.381 140.756 175.452 140.747Z" fill="#231F20"/>
<path d="M143.532 104.78C143.367 107.747 144.057 110.692 144.243 113.649C144.428 116.605 144.026 119.829 142.059 122.043C139.855 124.556 136.106 125.226 132.789 124.567C129.472 123.907 126.609 122.146 123.725 120.447C123.581 125.442 126.588 130.232 130.811 132.899C138.155 137.534 152.503 136.854 160.331 133.806C166.315 131.478 171.507 126.657 173.309 120.488C175.06 114.524 173.536 108.066 171.115 102.339C168.427 95.9944 163.318 90.1646 155.851 90.247C149.217 90.2779 143.861 98.8474 143.532 104.78Z" fill="white"/>
<path d="M145.746 136.72C140.009 136.72 134.344 135.69 130.574 133.301C128.361 131.945 126.528 130.05 125.247 127.793C123.966 125.536 123.279 122.99 123.251 120.395C123.256 120.303 123.284 120.215 123.332 120.137C123.381 120.059 123.449 119.996 123.529 119.952C123.606 119.906 123.693 119.883 123.782 119.883C123.87 119.883 123.958 119.906 124.034 119.952C126.681 121.559 129.678 123.392 132.933 124.072C135.673 124.618 139.401 124.288 141.678 121.713C143.254 119.921 143.944 117.222 143.738 113.689C143.666 112.659 143.532 111.506 143.398 110.445C143.104 108.568 142.98 106.669 143.027 104.77C143.38 101.208 144.734 97.8197 146.931 94.9949C149.516 91.6165 152.699 89.7316 155.892 89.7007H156.057C165.327 89.7007 170.054 98.363 171.641 102.061C174.638 109.137 175.379 115.358 173.855 120.601C172.104 126.585 167.139 131.683 160.568 134.248C155.812 135.94 150.794 136.777 145.746 136.72ZM124.291 121.332C124.478 123.586 125.193 125.765 126.377 127.692C127.562 129.619 129.183 131.24 131.11 132.425C138.135 136.864 152.06 136.442 160.166 133.28C166.439 130.839 171.177 125.988 172.835 120.302C174.298 115.348 173.556 109.353 170.662 102.493C169.148 98.9295 164.688 90.6174 155.871 90.7204C149.444 90.7925 144.335 99.187 144.026 104.811C143.981 106.648 144.102 108.485 144.387 110.301C144.521 111.331 144.665 112.505 144.737 113.617C144.974 117.428 144.191 120.384 142.43 122.383C139.865 125.287 135.724 125.679 132.707 125.071C129.707 124.317 126.861 123.053 124.291 121.332Z" fill="#231F20"/>
<path d="M154.635 100.629C153.383 100.073 152.261 99.2603 151.342 98.2438C150.423 97.2272 149.727 96.0294 149.3 94.7274C148.892 93.4209 148.815 92.0334 149.078 90.6901C149.341 89.3467 149.934 88.09 150.804 87.0333C151.346 86.3791 152.034 85.8607 152.812 85.5192C153.585 85.2311 154.411 85.1151 155.233 85.1793C157.072 85.3099 158.831 85.9864 160.284 87.1221C161.738 88.2579 162.819 89.8013 163.39 91.555C165.162 97.4569 160.795 103.4 154.635 100.629Z" fill="#231F20"/>
<path d="M157.674 101.845C156.547 101.831 155.437 101.575 154.419 101.093C153.105 100.509 151.928 99.6578 150.961 98.5938C149.995 97.5298 149.261 96.2762 148.805 94.9128C148.369 93.5131 148.288 92.0267 148.57 90.5879C148.852 89.1491 149.489 87.8035 150.423 86.6728C151.01 85.9541 151.763 85.3886 152.616 85.0248C153.456 84.7033 154.357 84.5731 155.253 84.6437C157.2 84.7732 159.062 85.4847 160.6 86.6859C162.137 87.887 163.278 89.5224 163.874 91.3799C164.393 92.9193 164.466 94.5736 164.088 96.1531C163.709 97.7325 162.892 99.1733 161.732 100.31C160.616 101.307 159.17 101.854 157.674 101.845ZM154.8 100.155C155.771 100.687 156.88 100.914 157.982 100.808C159.084 100.701 160.129 100.266 160.98 99.5581C161.992 98.5521 162.702 97.2821 163.028 95.8927C163.354 94.5034 163.283 93.0504 162.824 91.6992C162.289 90.0432 161.271 88.5856 159.899 87.5151C158.527 86.4445 156.866 85.8102 155.13 85.6943C154.384 85.6318 153.635 85.7374 152.936 86.0033C152.232 86.3053 151.61 86.7715 151.123 87.3629C150.313 88.3562 149.762 89.5342 149.518 90.7921C149.273 92.0499 149.344 93.3487 149.722 94.5729C150.128 95.8027 150.786 96.9339 151.655 97.8936C152.525 98.8534 153.585 99.6204 154.769 100.145L154.8 100.155Z" fill="#231F20"/>
<path d="M174.37 49.8397L174.236 49.9324C173.402 50.5092 170.487 53.9289 169.756 53.9598C139.299 54.8559 151.535 97.4155 166.954 109.446C173.083 114.235 183.805 118.294 191.581 116.44C197.339 115.07 202.623 110.26 202.849 104.337C208.834 103.863 215.292 103.183 219.731 99.1871C222.305 96.6299 224.144 93.4283 225.056 89.9171C227.708 81.3949 226.902 72.1717 222.811 64.2392C215.467 50.6431 196.031 42.2589 181.178 46.5952C178.75 47.3052 176.451 48.4007 174.37 49.8397Z" fill="white"/>
<path d="M187.461 117.408C180.251 117.408 171.826 113.875 166.666 109.858C156.108 101.618 147.096 79.5656 151.71 65.5679C154.223 57.9047 160.465 53.7023 169.766 53.4345C170.683 52.7379 171.535 51.9588 172.31 51.1067C172.829 50.5374 173.387 50.004 173.979 49.5102L174.123 49.4175C176.243 47.9197 178.591 46.7721 181.075 46.0185C196.062 41.641 215.797 50.0046 223.305 63.9096C227.477 71.9689 228.295 81.35 225.582 90.0098C224.664 93.6319 222.772 96.9338 220.112 99.5579C215.488 103.771 208.576 104.43 203.375 104.842C202.87 111.115 197.195 115.677 191.726 116.975C190.326 117.284 188.895 117.429 187.461 117.408ZM189.614 45.8743C186.827 45.859 184.053 46.2405 181.374 47.0073C178.996 47.7277 176.749 48.8267 174.72 50.2621L174.597 50.3548C174.061 50.8133 173.552 51.3016 173.072 51.8174C171.28 53.6508 170.435 54.4542 169.828 54.4748C161.001 54.7323 155.088 58.6875 152.719 65.8975C148.26 79.5141 157.025 101 167.325 109.044C173.35 113.741 183.877 117.758 191.52 115.945C196.721 114.73 202.18 110.311 202.365 104.317C202.372 104.191 202.424 104.072 202.511 103.981C202.598 103.891 202.714 103.834 202.839 103.822C209.205 103.317 215.261 102.545 219.422 98.7648C221.933 96.2615 223.714 93.1205 224.572 89.6802C227.189 81.2882 226.393 72.2031 222.358 64.3937C216.415 53.3315 202.468 45.8743 189.614 45.8743Z" fill="#231F20"/>
<path d="M208.36 96.3547C209.926 87.2083 225.18 85.1174 224.304 95.9118C224.161 99.6595 222.703 103.237 220.184 106.016C217.548 108.643 213.325 109.848 209.946 108.292" fill="white"/>
<path d="M213.16 109.498C211.964 109.507 210.78 109.257 209.689 108.766C209.626 108.738 209.569 108.698 209.522 108.648C209.475 108.598 209.439 108.54 209.415 108.475C209.391 108.411 209.38 108.343 209.383 108.274C209.385 108.206 209.402 108.138 209.431 108.076C209.459 108.015 209.499 107.959 209.548 107.913C209.597 107.868 209.656 107.832 209.719 107.809C209.782 107.786 209.85 107.776 209.917 107.779C209.984 107.783 210.05 107.8 210.111 107.829C213.119 109.209 217.094 108.323 219.772 105.656C222.677 102.761 223.563 98.734 223.789 95.8706C224.098 92.1111 222.286 89.6185 218.948 89.1962C214.828 88.6812 209.678 91.5343 208.865 96.4062C208.841 96.5428 208.765 96.6646 208.652 96.7447C208.539 96.8249 208.399 96.8569 208.262 96.8337C208.126 96.8104 208.004 96.7339 207.924 96.6209C207.843 96.5079 207.811 96.3677 207.835 96.2311C208.772 90.7412 214.499 87.5688 219.062 88.1353C222.152 88.5164 225.242 90.7618 224.799 95.9118C224.552 99.0018 223.604 103.225 220.483 106.335C218.549 108.306 215.92 109.441 213.16 109.498Z" fill="#231F20"/>
<path d="M170.435 95.9425C169.065 86.7549 153.863 84.3241 154.501 95.1391C154.576 98.8963 155.973 102.507 158.446 105.336C161.021 108.014 165.213 109.322 168.633 107.839" fill="white"/>
<path d="M165.543 108.972C164.143 108.949 162.762 108.647 161.48 108.085C160.198 107.523 159.04 106.711 158.075 105.696C154.985 102.514 154.161 98.2187 153.955 95.1699C153.657 90.0199 156.808 87.8363 159.868 87.517C164.441 87.0432 170.095 90.3598 170.909 95.86C170.919 95.927 170.916 95.9953 170.9 96.0611C170.884 96.1268 170.855 96.1888 170.815 96.2433C170.775 96.2978 170.724 96.3439 170.666 96.3789C170.608 96.4138 170.544 96.437 170.477 96.4471C170.342 96.465 170.205 96.4299 170.096 96.3493C169.986 96.2686 169.912 96.1486 169.889 96.0145C169.22 91.0396 164.07 88.1247 160.002 88.547C156.654 88.8972 154.79 91.3486 155.016 95.1081C155.181 97.9818 155.974 102.03 158.817 104.975C161.433 107.705 165.388 108.683 168.427 107.365C168.551 107.318 168.689 107.321 168.812 107.373C168.934 107.425 169.032 107.523 169.084 107.646C169.136 107.768 169.138 107.906 169.09 108.031C169.043 108.155 168.949 108.256 168.829 108.313C167.79 108.755 166.672 108.98 165.543 108.972Z" fill="#231F20"/>
<path d="M172.104 226.299C171.997 226.3 171.892 226.266 171.805 226.203C171.717 226.14 171.653 226.051 171.62 225.949C171.126 224.559 159.641 191.774 158.755 186.881C157.962 182.442 166.552 174.882 169.272 172.616C165.77 171.689 156.726 169.114 155.882 167.198C154.965 165.138 164.338 147.751 167.212 142.478C167.244 142.418 167.288 142.365 167.341 142.323C167.394 142.281 167.455 142.249 167.52 142.231C167.585 142.213 167.654 142.208 167.721 142.217C167.789 142.225 167.853 142.248 167.912 142.282C167.971 142.313 168.024 142.356 168.066 142.408C168.108 142.46 168.14 142.521 168.158 142.585C168.176 142.65 168.181 142.717 168.173 142.784C168.164 142.85 168.142 142.915 168.108 142.972C162.268 153.622 156.438 165.447 156.778 166.796C157.262 167.909 164.111 170.257 170.446 171.874C170.537 171.9 170.62 171.95 170.685 172.019C170.75 172.087 170.796 172.173 170.817 172.265C170.837 172.36 170.831 172.459 170.798 172.55C170.765 172.641 170.707 172.721 170.631 172.78C167.366 175.376 159.033 182.926 159.713 186.706C160.578 191.516 172.413 225.269 172.526 225.609C172.573 225.738 172.566 225.879 172.508 226.003C172.45 226.126 172.346 226.222 172.217 226.268L172.104 226.299Z" fill="#D1D3D4"/>
<path d="M202.994 226.073C202.911 226.071 202.83 226.049 202.757 226.011C202.697 225.981 202.643 225.939 202.6 225.887C202.556 225.836 202.523 225.776 202.503 225.712C202.483 225.647 202.476 225.58 202.482 225.513C202.489 225.446 202.508 225.38 202.541 225.321C202.695 225.012 218.433 194.37 219.329 187.139C219.329 184.749 210.492 179.486 204.909 176.746C204.823 176.704 204.75 176.638 204.699 176.556C204.648 176.474 204.621 176.379 204.621 176.283C204.625 176.186 204.655 176.092 204.708 176.011C204.76 175.929 204.833 175.863 204.92 175.819C208.679 174.048 218.578 168.609 219.288 164.953C219.999 161.296 212.748 146.65 209.895 141.366C209.862 141.306 209.842 141.241 209.834 141.174C209.827 141.106 209.833 141.038 209.852 140.973C209.871 140.908 209.903 140.847 209.946 140.794C209.988 140.742 210.041 140.698 210.101 140.665C210.221 140.602 210.362 140.588 210.493 140.627C210.623 140.665 210.734 140.753 210.801 140.871C211.223 141.664 221.225 160.277 220.298 165.148C219.484 169.392 209.472 174.707 206.3 176.293C209.771 178.054 220.411 183.75 220.359 187.201C219.443 194.679 204.116 224.528 203.467 225.795C203.422 225.88 203.353 225.952 203.27 226.001C203.186 226.05 203.091 226.075 202.994 226.073Z" fill="#D1D3D4"/>
<path d="M218.876 179.785C218.605 179.785 218.338 179.714 218.103 179.578C217.868 179.442 217.673 179.247 217.537 179.012C217.311 178.641 217.29 178.405 217.033 176.221C213.438 145.681 206.413 139.275 201.15 139.275C200.74 139.275 200.347 139.112 200.058 138.822C199.768 138.533 199.605 138.14 199.605 137.73C199.602 137.525 199.641 137.322 199.718 137.133C199.795 136.944 199.91 136.772 200.055 136.627C200.2 136.483 200.373 136.37 200.563 136.294C200.752 136.218 200.956 136.181 201.16 136.185C215.436 136.185 218.959 166.055 220.112 175.86C220.205 176.664 220.298 177.498 220.349 177.756C220.473 178.095 220.474 178.466 220.354 178.806C220.234 179.146 219.999 179.434 219.69 179.62C219.439 179.749 219.158 179.806 218.876 179.785Z" fill="#231F20"/>
<path d="M154.481 208.378C154.278 208.372 154.078 208.327 153.892 208.244C153.707 208.162 153.54 208.043 153.4 207.896C153.26 207.749 153.151 207.575 153.079 207.386C153.006 207.196 152.971 206.994 152.977 206.791C153.512 186.088 155.346 164.654 165.09 148.236C170.641 138.863 174.864 134.279 177.996 134.218C178.452 134.204 178.904 134.301 179.315 134.5C179.726 134.699 180.082 134.994 180.354 135.361C180.555 135.678 180.634 136.058 180.575 136.429C180.517 136.8 180.325 137.137 180.036 137.377C179.747 137.617 179.38 137.743 179.005 137.732C178.629 137.721 178.27 137.574 177.996 137.318C177.481 137.39 174.555 138.348 167.747 149.812C158.374 165.622 156.592 186.583 156.067 206.874C156.062 207.077 156.016 207.277 155.934 207.462C155.851 207.647 155.733 207.815 155.585 207.954C155.438 208.094 155.265 208.203 155.075 208.276C154.886 208.348 154.684 208.383 154.481 208.378Z" fill="#231F20"/>
<path d="M175.462 141.252C175.462 141.252 183.897 149.152 189.768 149.019C195.639 148.885 202.128 142.118 202.128 142.118L201.758 135.701L200.892 120.786L200.12 106.85L176.214 106.583L175.287 117.913L175.009 121.6L175.462 141.252Z" fill="white"/>
<path d="M189.624 149.544C183.63 149.544 175.462 141.953 175.112 141.623C175.061 141.578 175.02 141.522 174.991 141.46C174.963 141.398 174.948 141.331 174.947 141.263L174.483 121.693L174.761 117.954L175.688 106.624C175.703 106.496 175.763 106.378 175.858 106.291C175.952 106.204 176.075 106.154 176.203 106.15L200.12 106.418C200.25 106.418 200.376 106.468 200.47 106.558C200.564 106.648 200.619 106.772 200.625 106.902L202.685 142.169C202.69 142.239 202.68 142.31 202.655 142.375C202.63 142.441 202.591 142.501 202.541 142.55C202.273 142.839 195.794 149.492 189.789 149.616L189.624 149.544ZM175.967 141.015C177.13 142.045 184.464 148.514 189.624 148.514H189.758C194.857 148.411 200.625 142.931 201.634 141.922L199.626 107.365L176.677 107.108L175.513 121.703L175.967 141.015Z" fill="#231F20"/>
<path d="M174.998 121.652C176.875 124.925 179.546 127.674 182.764 129.644C187.914 132.971 195.536 136.72 201.789 135.701L200.923 120.786C196.351 121.409 191.715 121.409 187.142 120.786C183.104 120.343 178.964 119.839 175.276 118.016L174.998 121.652Z" fill="#231F20"/>
<path d="M199.584 136.36C193.209 136.36 186.287 132.518 182.486 130.046C179.198 128.057 176.466 125.268 174.545 121.94C174.496 121.856 174.474 121.759 174.483 121.662L174.761 117.964C174.77 117.882 174.798 117.803 174.843 117.733C174.888 117.663 174.948 117.605 175.019 117.562C175.093 117.522 175.176 117.5 175.261 117.5C175.346 117.5 175.429 117.522 175.503 117.562C179.211 119.406 183.455 119.87 187.194 120.292C191.725 120.917 196.32 120.917 200.851 120.292C200.922 120.282 200.995 120.286 201.064 120.306C201.133 120.325 201.198 120.359 201.253 120.405C201.309 120.449 201.355 120.506 201.387 120.57C201.419 120.634 201.437 120.704 201.438 120.776L202.304 135.69C202.313 135.818 202.273 135.944 202.193 136.043C202.113 136.143 201.998 136.208 201.871 136.226C201.114 136.333 200.349 136.377 199.584 136.36ZM175.524 121.548C177.356 124.687 179.94 127.32 183.043 129.212C187.091 131.848 194.754 136.071 201.253 135.258L200.45 121.373C196 121.908 191.499 121.866 187.06 121.25C183.465 120.848 179.407 120.395 175.73 118.747L175.524 121.548Z" fill="#231F20"/>
<path d="M187.163 124.144H189.614C195.181 124.204 200.544 122.054 204.528 118.165C208.511 114.277 210.79 108.966 210.863 103.4L211.079 83.4898C211.079 83.4898 199.337 80.6264 191.726 77.7527C178.943 72.9117 175.503 66.0107 175.503 66.0107C175.1 70.5869 174.092 75.0893 172.506 79.4007C171.136 82.4907 166.799 88.166 166.799 88.166C166.799 88.166 166.429 98.5278 166.377 102.854C166.342 105.617 166.852 108.36 167.877 110.926C168.903 113.493 170.425 115.831 172.356 117.809C174.286 119.786 176.588 121.363 179.128 122.45C181.669 123.538 184.399 124.113 187.163 124.144Z" fill="white"/>
<path d="M189.82 124.69H189.573H187.132C181.421 124.614 175.974 122.275 171.987 118.187C167.999 114.099 165.796 108.595 165.862 102.885C165.862 98.6001 166.284 88.2898 166.284 88.1868C166.285 88.0787 166.321 87.9737 166.387 87.8881C166.439 87.8881 170.703 82.2849 172.032 79.2361C173.598 74.9637 174.592 70.5029 174.988 65.9697C174.962 65.8331 174.991 65.6918 175.07 65.5769C175.148 65.462 175.269 65.3828 175.405 65.3569C175.542 65.3309 175.683 65.3603 175.798 65.4385C175.913 65.5168 175.992 65.6374 176.018 65.774C176.018 65.8461 179.551 72.572 191.962 77.2585C199.45 80.091 211.141 82.9544 211.254 82.975C211.37 83.0014 211.472 83.0675 211.543 83.1616C211.615 83.2557 211.651 83.3719 211.646 83.49L211.378 103.4C211.305 109.07 209.002 114.483 204.967 118.468C200.932 122.452 195.491 124.688 189.82 124.69ZM167.304 88.3825C167.304 89.7318 166.933 98.9297 166.892 102.906C166.835 108.343 168.939 113.58 172.742 117.466C176.545 121.353 181.736 123.569 187.173 123.629H189.614C195.042 123.681 200.27 121.583 204.155 117.792C208.04 114.002 210.266 108.827 210.348 103.4L210.564 83.902C208.442 83.3767 198.307 80.812 191.54 78.2473C181.92 74.6114 177.532 69.8425 175.874 67.5662C175.4 71.7022 174.428 75.7657 172.979 79.6687C171.692 82.5733 167.984 87.4967 167.304 88.3825Z" fill="#231F20"/>
<path d="M188.924 109.096C187.743 109.097 186.564 109.028 185.391 108.89C185.256 108.872 185.133 108.801 185.05 108.693C184.967 108.585 184.931 108.448 184.948 108.313C184.966 108.178 185.037 108.055 185.145 107.972C185.253 107.889 185.39 107.853 185.525 107.87C187.508 108.104 189.511 108.125 191.499 107.932C191.545 107.927 191.59 107.911 191.628 107.883C191.665 107.856 191.696 107.82 191.715 107.777C192.745 106.129 190.222 97.7762 188.409 92.894C188.365 92.7641 188.372 92.6222 188.43 92.4976C188.487 92.373 188.59 92.2753 188.718 92.2245C188.846 92.1781 188.988 92.1846 189.111 92.2425C189.235 92.3005 189.331 92.4051 189.377 92.5335C189.871 93.8725 194.197 105.707 192.601 108.313C192.492 108.494 192.342 108.648 192.163 108.76C191.984 108.873 191.782 108.942 191.571 108.962C190.692 109.054 189.808 109.099 188.924 109.096Z" fill="#231F20"/>
<path d="M180.461 90.0445C180.483 88.0764 179.85 86.4738 179.048 86.465C178.246 86.4562 177.578 88.0445 177.557 90.0126C177.535 91.9807 178.168 93.5833 178.97 93.5921C179.772 93.601 180.439 92.0126 180.461 90.0445Z" fill="#231F20"/>
<path d="M199.603 89.5977C199.625 87.6296 198.992 86.027 198.19 86.0182C197.388 86.0094 196.72 87.5977 196.699 89.5658C196.677 91.5339 197.31 93.1365 198.112 93.1454C198.914 93.1542 199.581 91.5659 199.603 89.5977Z" fill="#231F20"/>
<path d="M188.934 114.04C188.491 114.04 188.038 114.04 187.595 113.978C179.983 113.298 175.348 107.108 175.153 106.84C175.104 106.787 175.066 106.724 175.043 106.655C175.02 106.587 175.012 106.514 175.019 106.442C175.026 106.37 175.048 106.3 175.083 106.237C175.119 106.174 175.168 106.12 175.226 106.077C175.284 106.034 175.351 106.003 175.421 105.988C175.492 105.973 175.565 105.972 175.636 105.987C175.707 106.002 175.774 106.031 175.833 106.073C175.891 106.116 175.94 106.17 175.977 106.232C176.028 106.294 180.55 112.32 187.698 112.948C192.611 113.381 197.648 111.207 202.643 106.469C202.691 106.417 202.749 106.374 202.813 106.345C202.878 106.316 202.947 106.3 203.018 106.299C203.089 106.298 203.159 106.311 203.225 106.338C203.29 106.366 203.349 106.406 203.398 106.457C203.447 106.509 203.485 106.569 203.51 106.636C203.534 106.702 203.545 106.773 203.541 106.844C203.536 106.914 203.518 106.984 203.486 107.047C203.454 107.11 203.409 107.166 203.354 107.211C198.575 111.743 193.734 114.04 188.934 114.04Z" fill="#231F20"/>
<path d="M172.104 59.7792C175.194 67.9471 179.407 76.1459 186.431 81.4092C190.022 83.8887 193.935 85.8674 198.06 87.2905C204.24 89.6698 210.204 89.9685 215.416 94.2636C220.344 98.3135 223.873 103.813 225.499 109.981C227.319 105.128 228.038 99.9305 227.605 94.7651C227.172 89.5996 225.598 84.5947 222.996 80.1114C218.083 71.7787 209.946 65.9283 201.912 60.5414C197.524 57.5956 192.735 54.6086 187.492 54.7013" fill="white"/>
<path d="M225.509 110.496C225.401 110.489 225.297 110.446 225.214 110.376C225.131 110.306 225.072 110.211 225.046 110.105C223.446 104.043 219.98 98.6374 215.137 94.6549C211.697 91.8224 207.927 90.7615 203.89 89.6491C201.943 89.1032 199.935 88.547 197.916 87.7642C193.732 86.3088 189.764 84.2922 186.122 81.7696C178.542 76.1355 174.391 67.1539 171.62 59.9542C171.571 59.8258 171.575 59.6831 171.631 59.5576C171.687 59.432 171.79 59.3339 171.919 59.2847C172.047 59.2355 172.19 59.2394 172.315 59.2954C172.441 59.3514 172.539 59.455 172.588 59.5834C175.307 66.6492 179.365 75.466 186.74 80.9456C190.292 83.4173 194.167 85.3893 198.256 86.8063C200.233 87.5685 202.211 88.1144 204.137 88.65C208.257 89.8036 212.161 90.8851 215.755 93.8618C220.337 97.6309 223.74 102.636 225.561 108.282C227.04 103.668 227.538 98.7952 227.022 93.9773C226.506 89.1595 224.987 84.5029 222.564 80.307C217.733 72.067 209.575 66.2372 201.634 60.9018C197.04 57.8118 192.519 55.0617 187.472 55.1544C187.404 55.1572 187.336 55.1462 187.272 55.1221C187.208 55.0979 187.15 55.0612 187.101 55.0141C187.052 54.9669 187.013 54.9103 186.987 54.8477C186.96 54.7851 186.946 54.7177 186.946 54.6497C186.945 54.5821 186.957 54.5148 186.982 54.4518C187.006 54.3888 187.043 54.3313 187.09 54.2825C187.137 54.2337 187.193 54.1946 187.255 54.1675C187.317 54.1404 187.383 54.1257 187.451 54.1244C192.766 54.0523 197.473 56.8745 202.211 60.0469C210.245 65.4441 218.506 71.3769 223.46 79.7817C226.09 84.3468 227.68 89.4359 228.118 94.6861C228.556 99.9364 227.831 105.219 225.994 110.156C225.956 110.255 225.89 110.34 225.804 110.401C225.718 110.462 225.615 110.495 225.509 110.496Z" fill="#231F20"/>
<path d="M127.248 246.951C127.248 246.951 139.154 258.93 140.38 262.596C141.606 266.263 140.988 288.964 139.165 290.18C137.342 291.395 124.621 299.316 121.892 296.566C119.162 293.816 114.321 286.544 116.742 286.843C119.162 287.141 122.798 290.18 122.798 290.18C122.798 290.18 127.268 287.873 128.823 285.39C128.823 285.39 121.284 278.355 125.527 270.177L118.657 262.092" fill="white"/>
<path d="M123.653 297.637C123.268 297.669 122.881 297.622 122.514 297.5C122.148 297.378 121.81 297.183 121.521 296.927C119.718 295.114 114.785 288.687 115.67 286.853C115.777 286.657 115.943 286.502 116.146 286.409C116.348 286.316 116.575 286.291 116.793 286.338C118.966 286.606 121.943 288.841 122.849 289.562C124.849 288.52 126.642 287.124 128.144 285.442C126.753 283.969 121.356 277.563 124.909 270.25L118.256 262.422C118.208 262.375 118.17 262.318 118.144 262.257C118.118 262.195 118.104 262.128 118.104 262.061C118.104 261.994 118.118 261.927 118.144 261.866C118.17 261.804 118.208 261.748 118.256 261.701C118.36 261.612 118.495 261.568 118.632 261.578C118.768 261.587 118.896 261.65 118.987 261.752L125.857 269.838C125.926 269.915 125.969 270.012 125.982 270.115C125.995 270.218 125.977 270.322 125.929 270.414C121.912 278.16 129.019 284.948 129.112 285.009C129.2 285.09 129.257 285.2 129.272 285.319C129.287 285.438 129.26 285.558 129.194 285.658C127.587 288.233 123.169 290.541 123.014 290.633C122.925 290.681 122.822 290.701 122.721 290.69C122.62 290.679 122.525 290.638 122.448 290.571C122.448 290.571 118.905 287.636 116.659 287.358C116.618 287.35 116.576 287.35 116.536 287.358C116.247 288.12 119.45 293.394 122.242 296.206C124.188 298.173 134.025 292.971 138.866 289.747C140.308 288.481 141.132 266.531 139.896 262.761C138.732 259.28 127.011 247.435 126.897 247.311C126.8 247.214 126.746 247.083 126.746 246.946C126.746 246.809 126.8 246.677 126.897 246.58C126.994 246.483 127.126 246.429 127.263 246.429C127.4 246.429 127.532 246.483 127.629 246.58C128.113 247.075 139.638 258.714 140.874 262.422C141.904 265.635 141.75 289.068 139.453 290.602C139.35 290.695 128.823 297.637 123.653 297.637Z" fill="#231F20"/>
<path d="M130.08 155.662C130.08 155.662 66.6423 205.102 66.8277 216.195C66.9513 224.167 117.545 268.354 117.545 268.354L133.747 250.031L108.707 219.512L144.181 195.389" fill="white"/>
<path d="M117.504 268.869C117.379 268.871 117.258 268.827 117.164 268.746C115.104 266.933 66.4054 224.312 66.2715 216.216C66.1891 211.447 76.8702 199.736 98.0058 181.381C113.672 167.785 129.565 155.384 129.719 155.26C129.829 155.177 129.967 155.14 130.104 155.157C130.241 155.174 130.365 155.245 130.451 155.353C130.534 155.461 130.571 155.598 130.553 155.733C130.536 155.868 130.466 155.991 130.358 156.074C130.204 156.198 114.321 168.578 98.6753 182.164C72.6472 204.752 67.25 213.136 67.3015 216.154C67.4045 222.447 103.166 255.088 117.452 267.603L133.026 249.99L108.306 219.811C108.26 219.755 108.226 219.691 108.207 219.622C108.187 219.553 108.182 219.48 108.192 219.409C108.203 219.338 108.229 219.27 108.268 219.209C108.307 219.149 108.359 219.098 108.419 219.059L143.892 194.926C144.007 194.851 144.147 194.824 144.282 194.851C144.417 194.878 144.536 194.956 144.613 195.07C144.686 195.183 144.713 195.32 144.688 195.452C144.663 195.584 144.589 195.702 144.479 195.781L109.459 219.594L134.179 249.681C134.259 249.774 134.303 249.893 134.303 250.015C134.303 250.138 134.259 250.257 134.179 250.35L117.978 268.663C117.925 268.738 117.853 268.797 117.77 268.833C117.686 268.87 117.594 268.882 117.504 268.869Z" fill="#231F20"/>
<path d="M230.103 243.531C229.324 243.527 228.546 243.465 227.775 243.346C226.142 243.097 224.599 242.434 223.295 241.42C222.459 241.91 221.547 242.258 220.596 242.45C211.017 244.51 207.042 239.669 206.877 239.463C206.834 239.411 206.802 239.35 206.783 239.285C206.763 239.22 206.757 239.152 206.765 239.085C206.773 239.018 206.794 238.953 206.827 238.894C206.861 238.835 206.905 238.783 206.959 238.742C207.066 238.658 207.202 238.619 207.337 238.634C207.472 238.65 207.595 238.718 207.68 238.824C207.824 239.01 211.471 243.377 220.38 241.44C221.098 241.281 221.791 241.025 222.44 240.678C217.403 236.043 215.621 226.444 214.334 219.563C212.583 210.128 211.398 190.589 212.624 184.852C213.417 181.144 214.777 178.734 216.672 177.704C217.439 177.321 218.283 177.115 219.14 177.1C219.997 177.086 220.847 177.264 221.626 177.622C225.746 179.136 228.208 188.416 229.98 208.625C231.061 220.923 230.742 235.6 224.16 240.761C225.274 241.549 226.559 242.061 227.909 242.254C230.14 242.676 232.444 242.459 234.556 241.628C236.668 240.797 238.502 239.386 239.847 237.557C239.919 237.441 240.035 237.359 240.168 237.328C240.302 237.297 240.442 237.32 240.558 237.393C240.674 237.465 240.756 237.58 240.787 237.714C240.818 237.847 240.795 237.987 240.723 238.103C239.515 239.79 237.92 241.164 236.073 242.108C234.225 243.053 232.178 243.541 230.103 243.531ZM219.082 178.209C218.421 178.199 217.769 178.359 217.187 178.672C215.57 179.558 214.375 181.762 213.654 185.141C212.531 190.373 213.479 209.294 215.374 219.45C216.95 227.917 218.887 236.29 223.346 240.184C229.774 235.497 230.041 220.954 228.97 208.789C227.899 196.625 225.952 180.403 221.286 178.652C220.584 178.372 219.838 178.222 219.082 178.209Z" fill="#231F20"/>
<path d="M213.242 207.893C212.846 207.894 212.464 207.74 212.178 207.466C211.892 207.191 211.723 206.817 211.707 206.42C211.563 203.588 211.409 200.91 211.265 198.273C211.069 195.018 210.883 191.805 210.739 188.364C210.544 183.863 211.986 180.124 214.715 178.157C215.744 177.414 216.944 176.94 218.203 176.78C219.463 176.62 220.743 176.778 221.925 177.24C229.568 180.073 230.165 191.506 230.598 200.683C230.69 202.527 230.773 204.268 230.917 205.833C230.953 206.243 230.824 206.65 230.559 206.965C230.295 207.28 229.916 207.477 229.506 207.512C229.096 207.548 228.689 207.419 228.374 207.154C228.059 206.89 227.863 206.511 227.827 206.101C227.683 204.484 227.59 202.723 227.497 200.848C227.085 192.608 226.57 182.308 220.844 180.145C220.131 179.855 219.357 179.75 218.594 179.84C217.83 179.93 217.102 180.212 216.476 180.66C214.612 182.03 213.623 184.78 213.778 188.241C213.932 191.702 214.107 194.864 214.293 198.108C214.447 200.755 214.602 203.433 214.736 206.286C214.755 206.695 214.612 207.094 214.338 207.397C214.064 207.7 213.681 207.882 213.273 207.904L213.242 207.893Z" fill="#231F20"/>
<path d="M210.531 241.261C210.959 240.4 210.271 239.186 208.993 238.55C207.715 237.913 206.331 238.095 205.903 238.955C205.474 239.816 206.163 241.029 207.441 241.666C208.719 242.303 210.102 242.121 210.531 241.261Z" fill="#231F20"/>
<path d="M242.131 238.286C242.985 237.141 243.052 235.747 242.282 235.173C241.511 234.598 240.194 235.06 239.341 236.204C238.487 237.349 238.42 238.742 239.19 239.317C239.961 239.892 241.278 239.43 242.131 238.286Z" fill="#231F20"/>
<path d="M155.593 217.215C159.382 217.215 162.453 214.143 162.453 210.355C162.453 206.566 159.382 203.495 155.593 203.495C151.805 203.495 148.733 206.566 148.733 210.355C148.733 214.143 151.805 217.215 155.593 217.215Z" fill="white"/>
<path d="M155.593 217.73C154.135 217.73 152.709 217.297 151.496 216.487C150.283 215.676 149.338 214.525 148.78 213.177C148.222 211.829 148.075 210.347 148.36 208.916C148.645 207.485 149.347 206.171 150.378 205.14C151.41 204.109 152.724 203.406 154.154 203.122C155.585 202.837 157.068 202.983 158.415 203.541C159.763 204.1 160.915 205.045 161.725 206.258C162.535 207.47 162.968 208.896 162.968 210.355C162.965 212.31 162.187 214.184 160.805 215.567C159.422 216.949 157.548 217.727 155.593 217.73ZM155.593 204.01C154.338 204.01 153.112 204.382 152.068 205.079C151.025 205.776 150.212 206.767 149.731 207.927C149.251 209.086 149.125 210.362 149.37 211.593C149.615 212.823 150.219 213.954 151.107 214.841C151.994 215.729 153.125 216.333 154.355 216.578C155.586 216.822 156.862 216.697 158.021 216.217C159.181 215.736 160.171 214.923 160.869 213.88C161.566 212.836 161.938 211.61 161.938 210.355C161.938 208.672 161.269 207.058 160.08 205.868C158.89 204.678 157.276 204.01 155.593 204.01Z" fill="#231F20"/>
<path d="M170.363 243.428C171.325 243.428 172.104 242.649 172.104 241.687C172.104 240.726 171.325 239.947 170.363 239.947C169.402 239.947 168.623 240.726 168.623 241.687C168.623 242.649 169.402 243.428 170.363 243.428Z" fill="white"/>
<path d="M165.945 266.789C166.906 266.789 167.685 266.009 167.685 265.048C167.685 264.086 166.906 263.307 165.945 263.307C164.983 263.307 164.204 264.086 164.204 265.048C164.204 266.009 164.983 266.789 165.945 266.789Z" fill="white"/>
<path d="M144.139 268.869C144.037 268.87 143.938 268.84 143.853 268.783C143.768 268.726 143.703 268.645 143.666 268.55C143.617 268.424 143.619 268.284 143.671 268.16C143.723 268.035 143.82 267.935 143.944 267.881C148.414 266.027 163.081 259.96 164.204 259.96C164.34 259.96 164.471 260.014 164.568 260.111C164.665 260.207 164.719 260.338 164.719 260.475C164.719 260.612 164.665 260.743 164.568 260.839C164.471 260.936 164.34 260.99 164.204 260.99C163.174 261.103 151.494 265.862 144.335 268.828C144.273 268.855 144.207 268.869 144.139 268.869Z" fill="#D1D3D4"/>
<path d="M234.295 272.567C234.241 272.577 234.185 272.577 234.131 272.567L209.071 263.822C209.006 263.8 208.947 263.765 208.896 263.72C208.846 263.675 208.804 263.62 208.775 263.559C208.745 263.497 208.728 263.431 208.724 263.363C208.72 263.295 208.729 263.227 208.751 263.163C208.774 263.099 208.808 263.039 208.854 262.989C208.899 262.938 208.954 262.896 209.015 262.867C209.076 262.837 209.143 262.82 209.21 262.816C209.278 262.812 209.346 262.821 209.411 262.844L234.471 271.599C234.535 271.619 234.594 271.653 234.644 271.697C234.695 271.742 234.736 271.796 234.765 271.857C234.794 271.917 234.81 271.983 234.812 272.05C234.815 272.118 234.804 272.185 234.779 272.248C234.741 272.344 234.675 272.427 234.588 272.484C234.501 272.541 234.399 272.57 234.295 272.567Z" fill="#D1D3D4"/>
<path d="M169.024 238.907C169.764 238.907 170.363 238.307 170.363 237.568C170.363 236.828 169.764 236.229 169.024 236.229C168.285 236.229 167.685 236.828 167.685 237.568C167.685 238.307 168.285 238.907 169.024 238.907Z" fill="#D1D3D4"/>
<path d="M234.46 202.826H234.378C234.244 202.803 234.124 202.729 234.043 202.62C233.962 202.51 233.927 202.373 233.945 202.239C233.945 202.033 237.128 181.556 240.249 171.164C240.268 171.096 240.3 171.033 240.343 170.977C240.387 170.922 240.44 170.876 240.502 170.842C240.563 170.807 240.63 170.785 240.7 170.777C240.77 170.768 240.84 170.774 240.908 170.793C240.976 170.812 241.039 170.844 241.094 170.887C241.149 170.931 241.195 170.984 241.23 171.046C241.264 171.107 241.286 171.174 241.295 171.244C241.303 171.314 241.298 171.384 241.279 171.452C238.189 181.752 235.037 202.187 235.006 202.352C234.996 202.487 234.932 202.612 234.83 202.701C234.728 202.789 234.595 202.834 234.46 202.826Z" fill="#231F20"/>
<path d="M266.452 215.938C266.364 215.938 266.279 215.913 266.205 215.865C266.146 215.834 266.093 215.791 266.051 215.739C266.008 215.688 265.976 215.628 265.957 215.564C265.938 215.499 265.932 215.432 265.939 215.365C265.946 215.299 265.966 215.234 265.999 215.175L276.948 195.173C276.979 195.112 277.022 195.058 277.075 195.015C277.127 194.972 277.188 194.939 277.254 194.92C277.319 194.901 277.388 194.895 277.456 194.903C277.524 194.911 277.589 194.933 277.648 194.967C277.708 194.998 277.76 195.041 277.802 195.093C277.845 195.145 277.876 195.205 277.894 195.27C277.913 195.334 277.917 195.402 277.909 195.468C277.9 195.535 277.878 195.599 277.844 195.657L266.905 215.67C266.86 215.75 266.794 215.817 266.715 215.865C266.635 215.912 266.544 215.937 266.452 215.938Z" fill="#231F20"/>
</svg>
