<svg width="67" height="66" viewBox="0 0 67 66" fill="none" xmlns="http://www.w3.org/2000/svg">
<path d="M39.3207 52.7393V59.2364H27.2522V27.1924H32.558V20.4287H20.5174V39.2278H7.25471V27.1924H13.7626V20.4287H6.76911C5.10708 20.4308 3.51373 21.0917 2.3385 22.2664C1.16327 23.4411 0.502106 25.0338 0.5 26.6951V39.7411C0.502106 41.4024 1.16327 42.995 2.3385 44.1697C3.51373 45.3444 5.10708 46.0053 6.76911 46.0074H20.5174V59.7457C20.5226 61.4042 21.1846 62.9932 22.3587 64.1653C23.5327 65.3373 25.1232 65.997 26.7825 66.0001H39.8023C41.4643 65.998 43.0577 65.3372 44.2329 64.1624C45.4081 62.9877 46.0693 61.3951 46.0714 59.7338V52.7393H39.3207Z" fill="#3D6ADF"/>
<path d="M60.2304 19.9997H46.4849V6.26856C46.4828 4.60668 45.8216 3.01347 44.6462 1.83834C43.4709 0.663218 41.8774 0.00210631 40.2152 0H27.1943C25.5328 0.00315883 23.9403 0.664734 22.7659 1.83975C21.5914 3.01476 20.9307 4.60737 20.9286 6.26856V13.2575H27.664V6.7382H39.7216V38.8054H34.4312V45.5714H46.4849V26.7498H59.7487V38.8054H53.2362V45.5714H60.2304C61.8925 45.5693 63.486 44.9082 64.6614 43.7331C65.8367 42.558 66.4979 40.9647 66.5 39.3029V26.2682C66.4979 24.6064 65.8367 23.0132 64.6614 21.838C63.486 20.6629 61.8925 20.0018 60.2304 19.9997Z" fill="#EC2307"/>
</svg>
